<svg xmlns="http://www.w3.org/2000/svg" xmlns:xlink="http://www.w3.org/1999/xlink" width="1000" height="300" viewBox="0 0 1000 300"><defs><style>.a,.h,.r{fill:none;}.b{fill:#e3f6fe;}.c{fill:#acd6ff;opacity:0.4;}.d{fill:#a7d0f8;opacity:0.8;}.e,.f,.j,.k,.o{opacity:0.1;}.e{fill:url(#a);}.f{fill:url(#b);}.g{opacity:0.3;}.h{stroke:#1268ff;stroke-width:2.43px;}.h,.r{stroke-miterlimit:10;}.i{fill:#365dff;}.j{fill:url(#c);}.l{opacity:0.07;}.m{fill:#fe9800;}.n{fill:#fff;}.o{fill:#130c57;}.p{clip-path:url(#d);}.q{opacity:0.12;}.r{stroke:#3b68db;}</style><linearGradient id="a" x1="497.88" y1="75.51" x2="502.49" y2="369.49" gradientUnits="userSpaceOnUse"><stop offset="0" stop-color="#fff" stop-opacity="0"/><stop offset="1"/></linearGradient><linearGradient id="b" x1="496.17" y1="108.87" x2="504.01" y2="344.69" xlink:href="#a"/><linearGradient id="c" x1="481.13" y1="175.69" x2="510.67" y2="272.14" gradientUnits="userSpaceOnUse"><stop offset="0" stop-color="#fff"/><stop offset="1"/></linearGradient><clipPath id="d"><rect class="a" width="1000" height="300"/></clipPath></defs><rect class="b" width="1000" height="300"/><path class="c" d="M610,264.75a54.11,54.11,0,0,0,9.35-107.4A48.27,48.27,0,0,0,568.58,98a47.92,47.92,0,0,0-19.25,5.73A89.76,89.76,0,0,0,380.46,146.1a91.06,91.06,0,0,0,.71,11.15A54.11,54.11,0,0,0,390,264.75Z"/><path class="d" d="M582.68,264.75a40.67,40.67,0,0,0,7-80.73,36.27,36.27,0,0,0-52.62-40.34,67.48,67.48,0,0,0-126.94,31.88,68.21,68.21,0,0,0,.54,8.39,40.67,40.67,0,0,0,6.64,80.8Z"/><path class="e" d="M610,264.75a54.11,54.11,0,0,0,9.35-107.4A48.27,48.27,0,0,0,568.58,98a47.92,47.92,0,0,0-19.25,5.73A89.76,89.76,0,0,0,380.46,146.1a91.06,91.06,0,0,0,.71,11.15A54.11,54.11,0,0,0,390,264.75Z"/><path class="f" d="M582.68,264.75a40.67,40.67,0,0,0,7-80.73,36.27,36.27,0,0,0-52.62-40.34,67.48,67.48,0,0,0-126.94,31.88,68.21,68.21,0,0,0,.54,8.39,40.67,40.67,0,0,0,6.64,80.8Z"/><g class="g"><path class="h" d="M482.27,142.69a21,21,0,0,1,5.84-9,24.38,24.38,0,0,1,5.84,9"/><line class="h" x1="488.11" y1="133.73" x2="488.11" y2="175.73"/><path class="h" d="M574.67,200.28a20.79,20.79,0,0,1,10.67.78,24.09,24.09,0,0,1-5,9.43"/><line class="h" x1="585.34" y1="201.06" x2="548.56" y2="221.35"/><path class="h" d="M422,201.49a21,21,0,0,0-10.66.78,24.07,24.07,0,0,0,5,9.44"/><line class="h" x1="411.35" y1="202.27" x2="448.12" y2="222.56"/></g><path class="i" d="M555.81,264.75a27.46,27.46,0,0,0,4.74-54.5A24.48,24.48,0,0,0,525,183a45.52,45.52,0,0,0-85.32,27.19,27.45,27.45,0,0,0,4.48,54.54Z"/><path class="j" d="M583.27,237.29a25.69,25.69,0,0,1-.23,3.52,27.19,27.19,0,0,1-3.83,10.85,27.43,27.43,0,0,1-23.39,13.09H444.19a27.45,27.45,0,0,1-4.48-54.54A45.41,45.41,0,0,1,484.89,159,45.52,45.52,0,0,1,525,183a24.5,24.5,0,0,1,35.52,27.23,27.48,27.48,0,0,1,19.24,13.69A27.07,27.07,0,0,1,583.27,237.29Z"/><path class="k" d="M579.79,223.94a9.21,9.21,0,0,0-1.25,2.5l-5.41-.36c-.13-1.52-1.6-4.22-2.48-5.55l-6.82,2.33c.08,1.59.5,4.66,1.28,6l-4.1,3.6c-1.17-1-4.12-1.81-5.68-2.13l-3.24,6.49c1.19,1.06,3.63,2.91,5.1,3.26l-.4,5.45c-1.51.16-4.21,1.66-5.54,2.55l2.23,6.86c1.6-.1,4.65-.55,5.94-1.35l3.53,4.1c-1,1.19-1.84,4.17-2.16,5.73l1.28.65a27.48,27.48,0,0,0,17.14-12.37,9,9,0,0,1-8.78.44,9.14,9.14,0,0,1,8.16-16.35,8.93,8.93,0,0,1,4.45,5.06,25.69,25.69,0,0,0,.23-3.52A27.07,27.07,0,0,0,579.79,223.94Z"/><path class="b" d="M595.69,249.05l-3.24,6.49c-1.56-.31-4.51-1.16-5.68-2.12l-4.1,3.59c.78,1.31,1.2,4.37,1.28,6l-6.82,2.32c-.88-1.33-2.34-4-2.48-5.55l-5.4-.36c-.37,1.49-2.22,4-3.29,5.17l-6.41-3.2c.32-1.57,1.19-4.55,2.16-5.73l-3.53-4.11c-1.3.81-4.34,1.26-5.93,1.36L550,246c1.33-.89,4-2.4,5.53-2.55L556,238c-1.47-.35-3.92-2.2-5.1-3.26l3.24-6.49c1.56.31,4.51,1.16,5.67,2.12l4.11-3.59c-.78-1.3-1.2-4.36-1.28-6l6.82-2.32c.88,1.33,2.35,4,2.48,5.55l5.41.36c.36-1.49,2.21-4,3.28-5.18l6.41,3.21c-.32,1.57-1.19,4.55-2.16,5.73l3.53,4.11c1.3-.8,4.34-1.25,5.93-1.36l2.24,6.86c-1.33.89-4,2.4-5.54,2.55l-.4,5.45C592.06,246.14,594.51,248,595.69,249.05Zm-14.35-3.12a9,9,0,1,0-12.15,4.14A9.08,9.08,0,0,0,581.34,245.93Z"/><g class="l"><path d="M587,222.45a18.1,18.1,0,0,1-2,5.49,13.68,13.68,0,0,0-5.18-7.78c.27-.35.52-.67.75-.92Z"/><path d="M590.59,245.79c1.47.35,3.91,2.19,5.11,3.26l-3.25,6.49c-1.56-.31-4.51-1.15-5.68-2.12L582.66,257c.79,1.3,1.21,4.37,1.29,6l-6.82,2.33c-.87-1.34-2.35-4-2.48-5.56l-5.37-.37c6-1.34,13-6.85,15.92-15.1,1.91-5.4,1.09-11.22,0-15.67l3.17,3.67c1.29-.8,4.35-1.25,5.94-1.35l2.24,6.86c-1.33.89-4,2.4-5.55,2.56Z"/></g><path class="m" d="M499.47,249.29a61.2,61.2,0,0,1-14.75-1.65A57.66,57.66,0,0,1,461.44,236c-.63-.52-1.25-1.07-1.87-1.61l-.12-.12a.76.76,0,0,1-.16-1,.74.74,0,0,1,1-.16c.66.35,1.3.73,2,1.08a77.25,77.25,0,0,0,14.95,6.12,79.12,79.12,0,0,0,11.89,2.54,77.16,77.16,0,0,0,13.24.66,78,78,0,0,0,18.33-2.94,74.58,74.58,0,0,0,8.8-3.08,1.59,1.59,0,0,1,1.35-.06,1.05,1.05,0,0,1,.39,1.65,2.52,2.52,0,0,1-.51.47,48.45,48.45,0,0,1-13.53,6.71,61.64,61.64,0,0,1-10.54,2.41A56.22,56.22,0,0,1,499.47,249.29Z"/><path class="n" d="M499.82,207.84c-.57,2.37-1.13,4.73-1.7,7.09q-1.17,4.86-2.33,9.71a.59.59,0,0,0,0,.13c-.28,1-.52,1.2-1.54,1.22-.86,0-1.71,0-2.57,0a1.06,1.06,0,0,1-1-.71c-.39-1-.64-2-.94-2.94q-2.78-9.1-5.53-18.21a3.47,3.47,0,0,1-.16-.71.58.58,0,0,1,.62-.75h2.84a1.09,1.09,0,0,1,1.12.78,29.86,29.86,0,0,1,.8,2.95q1.89,7.35,3.75,14.7l0,.12c.11,0,.09-.12.11-.2l4-16.91c.3-1.25.55-1.45,1.82-1.45.72,0,1.42,0,2.14,0a1.08,1.08,0,0,1,1.2.94c.29,1.08.54,2.17.79,3.26q1.69,7.19,3.4,14.35c0,.07,0,.16.11.21.28-1.07.56-2.14.83-3.21l3.66-14.14c.32-1.22.59-1.42,1.83-1.42h2.11c.6,0,.8.22.74.82a7.09,7.09,0,0,1-.41,1.5q-3.06,9.83-6.13,19.63c-.39,1.24-.63,1.42-1.93,1.42h-1.94c-1,0-1.31-.27-1.53-1.2q-.92-3.81-1.82-7.61c-.74-3.05-1.47-6.1-2.21-9.16A.37.37,0,0,0,499.82,207.84Z"/><path class="n" d="M482.61,223.34a8.48,8.48,0,0,1-1-2.47,13.13,13.13,0,0,1-.2-2.34c0-2.5,0-5,0-7.48a16.56,16.56,0,0,0-.08-2A8.4,8.4,0,0,0,480,205a6.67,6.67,0,0,0-4.32-2.65,16.47,16.47,0,0,0-7.92.3,14.32,14.32,0,0,0-3,1.14c-.31.18-.62.37-.69.76a9.79,9.79,0,0,0,0,2.23c0,.41.32.57.72.47a8.16,8.16,0,0,0,.95-.32c.59-.23,1.18-.44,1.79-.63a12.59,12.59,0,0,1,6.21-.5,3.66,3.66,0,0,1,3.16,2.85,18,18,0,0,1,.26,4.15c0,.19-.11.14-.22.12-1.11-.26-2.24-.46-3.37-.61a14.48,14.48,0,0,0-5.37.24,7.17,7.17,0,0,0-5.62,8.41,5.94,5.94,0,0,0,3.92,5.05,9.49,9.49,0,0,0,9-1.21,11.32,11.32,0,0,0,2-1.82l.34.67a8.34,8.34,0,0,0,1.33,2,1.09,1.09,0,0,0,1.62.21c.52-.33,1-.67,1.52-1A1,1,0,0,0,482.61,223.34ZM477.17,217a10,10,0,0,1-.17,2,4.59,4.59,0,0,1-2.39,3.2,7.12,7.12,0,0,1-4.75.92,3.16,3.16,0,0,1-2.78-3.14,5.38,5.38,0,0,1,.09-1.65,3.67,3.67,0,0,1,3.18-2.8,14.23,14.23,0,0,1,4.74,0c.63.08,1.25.21,1.87.35.16,0,.22.09.21.26S477.17,216.7,477.17,217Z"/><path class="n" d="M526.67,202a16.92,16.92,0,0,1,5.25.91l.55.22a1.91,1.91,0,0,1,1.35,2.12c0,.36,0,.74,0,1.1a.57.57,0,0,1-.76.52,18.21,18.21,0,0,1-1.74-.65,12.24,12.24,0,0,0-6.35-.43,4.34,4.34,0,0,0-.94.32,2.71,2.71,0,0,0-.41,4.71,12.24,12.24,0,0,0,2.64,1.18c1.61.53,3.26.95,4.83,1.6a6,6,0,0,1,3.79,3.86,6.67,6.67,0,0,1-3.06,7.78,10.29,10.29,0,0,1-4.37,1.42,17.13,17.13,0,0,1-7.86-1.05,5.15,5.15,0,0,1-1.07-.55,1.46,1.46,0,0,1-.72-1.27c0-.48,0-1,0-1.44,0-.65.35-.9,1-.69s1,.41,1.59.6a14.66,14.66,0,0,0,6.82.81,5.24,5.24,0,0,0,2.53-1,2.83,2.83,0,0,0-.25-4.64,14.8,14.8,0,0,0-2.87-1.14c-1.42-.46-2.89-.81-4.26-1.4a6.5,6.5,0,0,1-4-4.48,6,6,0,0,1,2.17-6.43,9,9,0,0,1,5.16-2C526,202,526.36,202,526.67,202Z"/><path class="m" d="M532.55,231.48A15.76,15.76,0,0,1,537,232c1.18.34,1.41.63,1.44,1.86a16,16,0,0,1-1.23,6,14.8,14.8,0,0,1-3.43,5.42,3.91,3.91,0,0,1-.76.64c-.25.15-.52.26-.77.06s-.17-.48-.07-.74a56.07,56.07,0,0,0,1.92-5.31,12.8,12.8,0,0,0,.65-3.29c0-1.13-.3-1.54-1.39-1.82a10.22,10.22,0,0,0-2.58-.25,49.61,49.61,0,0,0-6.09.45,4.36,4.36,0,0,1-.63,0,.44.44,0,0,1-.4-.68,1.37,1.37,0,0,1,.55-.57,13.79,13.79,0,0,1,5.28-2A17.77,17.77,0,0,1,532.55,231.48Z"/><ellipse class="o" cx="500" cy="286.22" rx="148.75" ry="4.79"/><g class="p"><g class="q"><path class="r" d="M665.81,303.44a83.23,83.23,0,0,0,14.37-165.21A74.22,74.22,0,0,0,572.49,55.68a138,138,0,0,0-258.65,82.41,83.23,83.23,0,0,0,13.58,165.35Z"/><path class="r" d="M721.33,303.44A110.54,110.54,0,0,0,740.42,84a98.59,98.59,0,0,0-143-109.64A183.3,183.3,0,0,0,253.86,83.83a110.55,110.55,0,0,0,18,219.61Z"/><path class="r" d="M803.35,303.44A150.89,150.89,0,0,0,829.41,3.93,134.41,134.41,0,0,0,832.72-38,134.69,134.69,0,0,0,687.87-161.71a133.94,133.94,0,0,0-53.7,16,250.24,250.24,0,0,0-220.61-132c-138.23,0-250.3,112.07-250.3,250.31a253.31,253.31,0,0,0,2,31.1,150.89,150.89,0,0,0,24.63,299.76Z"/><path class="r" d="M905.43,303.44c111.07,0,201.11-90,201.11-201.11,0-99.23-71.87-181.61-166.39-198.07a179,179,0,0,0,4.42-55.87A179.53,179.53,0,0,0,751.51-316.5,178.49,178.49,0,0,0,680-295.2c-56.28-104.72-166.82-175.93-294-175.93-184.24,0-333.6,149.36-333.6,333.6A337.39,337.39,0,0,0,55-96.08C-40.47-80.4-113.31,2.44-113.31,102.33c0,111.07,90,201.11,201.12,201.11Z"/></g></g></svg>